<?xml version="1.0" encoding="UTF-8"?>
<svg width="800px" height="800px" viewBox="0 0 800 800" version="1.1" xmlns="http://www.w3.org/2000/svg" xmlns:xlink="http://www.w3.org/1999/xlink">
    <title>AI Cloud</title>
    <g stroke="none" stroke-width="1" fill="none" fill-rule="evenodd">
        <g transform="translate(50, 50)" fill="#FFFFFF" fill-opacity="0.85">
            <path d="M600,300 C600,420 540,540 450,600 C360,660 290,650 200,600 C110,550 50,450 50,350 C50,250 110,150 200,100 C290,50 360,50 450,100 C540,150 600,240 600,300 Z" stroke="#FFFFFF" stroke-width="10"></path>
            <circle cx="190" cy="300" r="40"></circle>
            <circle cx="290" cy="220" r="40"></circle>
            <circle cx="390" cy="300" r="40"></circle>
            <circle cx="290" cy="380" r="40"></circle>
            <path d="M190,300 L290,220 L390,300 L290,380 Z"></path>
            <path d="M190,300 L390,300"></path>
            <path d="M290,220 L290,380"></path>
            <path d="M370,150 C420,170 480,200 500,280 C520,360 490,450 450,500" stroke="#FFFFFF" stroke-width="10"></path>
            <path d="M525,280 C550,280 570,300 570,325 C570,350 550,370 525,370 C500,370 480,350 480,325 C480,300 500,280 525,280 Z" stroke="#FFFFFF" stroke-width="5"></path>
        </g>
    </g>
</svg>
