<?xml version="1.0" encoding="UTF-8"?>
<svg width="800px" height="600px" viewBox="0 0 800 600" version="1.1" xmlns="http://www.w3.org/2000/svg" xmlns:xlink="http://www.w3.org/1999/xlink">
    <defs>
        <linearGradient x1="0%" y1="0%" x2="100%" y2="100%" id="ecommerceGradient">
            <stop stop-color="#1E40AF" offset="0%"></stop>
            <stop stop-color="#3B82F6" offset="100%"></stop>
        </linearGradient>
    </defs>
    <g stroke="none" stroke-width="1" fill="none" fill-rule="evenodd">
        <rect fill="url(#ecommerceGradient)" x="0" y="0" width="800" height="600"></rect>
        <g transform="translate(150, 100)" fill="#FFFFFF" fill-opacity="0.9">
            <path d="M500,300 C500,355.23 455.23,400 400,400 L100,400 C44.77,400 0,355.23 0,300 L0,100 C0,44.77 44.77,0 100,0 L400,0 C455.23,0 500,44.77 500,100 L500,300 Z" fill-opacity="0.15"></path>
            <g transform="translate(130, 70)">
                <path d="M240,182.4 L240,48 C240,43.6 236.4,40 232,40 L48,40 C43.6,40 40,43.6 40,48 L40,232 C40,236.4 43.6,240 48,240 L182.4,240 L240,182.4 Z M176,216 L176,176 L216,176 L176,216 Z" fill-opacity="0.8"></path>
                <circle cx="80" cy="120" r="16"></circle>
                <circle cx="120" cy="120" r="16"></circle>
                <circle cx="160" cy="120" r="16"></circle>
                <rect x="80" y="168" width="120" height="8" rx="4"></rect>
                <rect x="80" y="192" width="80" height="8" rx="4"></rect>
            </g>
            <g transform="translate(100, 80)">
                <path d="M70,90 L79,110 L40,110 L30,90 L70,90 Z" fill-opacity="0.8"></path>
                <path d="M115,90 L125,110 L84,110 L75,90 L115,90 Z" fill-opacity="0.8"></path>
                <path d="M160,90 L170,110 L130,110 L120,90 L160,90 Z" fill-opacity="0.8"></path>
                <path d="M200,90 L210,110 L175,110 L165,90 L200,90 Z" fill-opacity="0.8"></path>
                <path d="M240,90 L250,110 L215,110 L205,90 L240,90 Z" fill-opacity="0.8"></path>
                <path d="M280,90 L290,110 L255,110 L245,90 L280,90 Z" fill-opacity="0.8"></path>
                <path d="M40,140 L290,140 L290,150 L40,150 L40,140 Z" fill-opacity="0.8"></path>
                <path d="M40,170 L290,170 L290,180 L40,180 L40,170 Z" fill-opacity="0.8"></path>
                <path d="M40,200 L290,200 L290,210 L40,210 L40,200 Z" fill-opacity="0.8"></path>
                <path d="M40,230 L290,230 L290,240 L40,240 L40,230 Z" fill-opacity="0.8"></path>
                <path d="M120,30 L208,30 C210.209,30 212,31.791 212,34 L212,56 C212,58.209 210.209,60 208,60 L120,60 C117.791,60 116,58.209 116,56 L116,34 C116,31.791 117.791,30 120,30 Z" fill-opacity="0.8"></path>
                <rect x="40" y="30" width="60" height="30" rx="4"></rect>
                <rect x="228" y="30" width="60" height="30" rx="4"></rect>
            </g>
        </g>
    </g>
</svg>
